<?xml version="1.0" standalone="no"?>
<!DOCTYPE svg PUBLIC "-//W3C//DTD SVG 20010904//EN"
 "http://www.w3.org/TR/2001/REC-SVG-20010904/DTD/svg10.dtd">
<svg version="1.0" xmlns="http://www.w3.org/2000/svg"
 width="512.000000pt" height="512.000000pt" viewBox="0 0 512.000000 512.000000"
 preserveAspectRatio="xMidYMid meet">

<g transform="translate(0.000000,512.000000) scale(0.100000,-0.100000)"
fill="#000000" stroke="none">
<path d="M2340 5109 c-587 -50 -1136 -303 -1564 -719 -1031 -1003 -1031 -2657
0 -3660 371 -361 817 -592 1321 -685 1011 -187 2026 247 2603 1114 298 447
451 1029 412 1566 -46 628 -289 1174 -722 1619 -535 550 -1287 831 -2050 765z
m398 -1876 l2 -893 -180 0 -180 0 0 888 c0 489 3 892 7 896 4 3 84 5 177 4
l171 -3 3 -892z m-508 293 l0 -185 -54 -24 c-258 -119 -455 -376 -506 -664
-18 -100 -8 -307 19 -398 95 -318 333 -549 649 -632 138 -35 307 -35 445 1
270 70 478 243 597 500 21 44 46 108 55 141 23 83 31 298 15 389 -49 279 -236
529 -487 653 l-73 36 0 180 0 180 29 -6 c59 -12 191 -69 271 -117 119 -71 179
-120 283 -230 149 -158 250 -343 303 -554 35 -140 44 -351 20 -497 -87 -529
-497 -942 -1023 -1034 -110 -19 -316 -19 -426 0 -526 92 -936 506 -1023 1034
-24 146 -15 357 20 497 57 227 155 401 326 575 111 113 212 190 330 249 33 17
207 85 228 90 1 0 2 -83 2 -184z"/>
</g>
</svg>
